HIERARCHY
ROOT Root
{
  OFFSET 0.0 0.0 0.0
  CHANNELS 6 Xposition Yposition Zposition Zrotation Yrotation Xrotation
  JOINT Hips
  {
    OFFSET 0.0 100.0 0.0
    CHANNELS 6 Xposition Yposition Zposition Zrotation Yrotation Xrotation
    JOINT Spine1
    {
      OFFSET 5.003913 -0.037094 -0.013727
      CHANNELS 3 Zrotation Yrotation Xrotation
      JOINT Spine2
      {
        OFFSET 7.125363 -1e-06 0.0
        CHANNELS 3 Zrotation Yrotation Xrotation
        JOINT Chest
        {
          OFFSET 7.594027 1e-06 0.0
          CHANNELS 3 Zrotation Yrotation Xrotation
          JOINT Neck1
          {
            OFFSET 26.313086 -0.460272 -0.181672
            CHANNELS 3 Zrotation Yrotation Xrotation
            JOINT Neck2
            {
              OFFSET 8.04591 0.0 0.0
              CHANNELS 3 Zrotation Yrotation Xrotation
              JOINT Head
              {
                OFFSET 6.432777 0.0 0.0
                CHANNELS 3 Zrotation Yrotation Xrotation
                JOINT HeadEnd
                {
                  OFFSET 16.169769 0.06451 0.00362
                  CHANNELS 3 Zrotation Yrotation Xrotation
                }
                JOINT Jaw
                {
                  OFFSET 0.108738 3.12938 0.002639
                  CHANNELS 3 Zrotation Yrotation Xrotation
                }
                JOINT LeftEye
                {
                  OFFSET 4.451729 8.166359 3.206392
                  CHANNELS 3 Zrotation Yrotation Xrotation
                }
                JOINT RightEye
                {
                  OFFSET 4.43689 8.135758 -3.222429
                  CHANNELS 3 Zrotation Yrotation Xrotation
                }
              }
            }
          }
          JOINT LeftShoulder
          {
            OFFSET 23.218927 5.195579 1.621656
            CHANNELS 3 Zrotation Yrotation Xrotation
            JOINT LeftArm
            {
              OFFSET 15.902122 2e-06 -2e-06
              CHANNELS 3 Zrotation Yrotation Xrotation
              JOINT LeftForeArm
              {
                OFFSET 28.739304 0.0 -1e-06
                CHANNELS 3 Zrotation Yrotation Xrotation
                JOINT LeftHand
                {
                  OFFSET 27.093979 -4e-06 0.0
                  CHANNELS 3 Zrotation Yrotation Xrotation
                  JOINT LeftHandThumb1
                  {
                    OFFSET 2.276787 3.380274 0.83384
                    CHANNELS 3 Zrotation Yrotation Xrotation
                    JOINT LeftHandThumb2
                    {
                      OFFSET 4.705307 -2e-06 -1e-06
                      CHANNELS 3 Zrotation Yrotation Xrotation
                      JOINT LeftHandThumb3
                      {
                        OFFSET 2.798515 0.0 3e-06
                        CHANNELS 3 Zrotation Yrotation Xrotation
                        JOINT LeftHandThumbEnd
                        {
                          OFFSET 3.180786 5e-06 -4e-06
                          CHANNELS 3 Zrotation Yrotation Xrotation
                        }
                      }
                    }
                  }
                  JOINT LeftHandIndex1
                  {
                    OFFSET 3.24778 2.352677 0.137192
                    CHANNELS 3 Zrotation Yrotation Xrotation
                    JOINT LeftHandIndex2
                    {
                      OFFSET 6.367104 1e-06 0.0
                      CHANNELS 3 Zrotation Yrotation Xrotation
                      JOINT LeftHandIndex3
                      {
                        OFFSET 3.662361 0.0 0.0
                        CHANNELS 3 Zrotation Yrotation Xrotation
                        JOINT LeftHandIndex4
                        {
                          OFFSET 2.329239 4e-06 -4e-06
                          CHANNELS 3 Zrotation Yrotation Xrotation
                          JOINT LeftHandIndexEnd
                          {
                            OFFSET 2.767822 0.0 0.0
                            CHANNELS 3 Zrotation Yrotation Xrotation
                          }
                        }
                      }
                    }
                  }
                  JOINT LeftHandMiddle1
                  {
                    OFFSET 3.163612 0.945023 -0.406112
                    CHANNELS 3 Zrotation Yrotation Xrotation
                    JOINT LeftHandMiddle2
                    {
                      OFFSET 6.276794 3e-06 0.0
                      CHANNELS 3 Zrotation Yrotation Xrotation
                      JOINT LeftHandMiddle3
                      {
                        OFFSET 4.356522 -1e-06 4e-06
                        CHANNELS 3 Zrotation Yrotation Xrotation
                        JOINT LeftHandMiddle4
                        {
                          OFFSET 2.996872 0.0 8e-06
                          CHANNELS 3 Zrotation Yrotation Xrotation
                          JOINT LeftHandMiddleEnd
                          {
                            OFFSET 2.323257 3e-06 -4e-06
                            CHANNELS 3 Zrotation Yrotation Xrotation
                          }
                        }
                      }
                    }
                  }
                  JOINT LeftHandRing1
                  {
                    OFFSET 2.882607 -0.309162 0.107445
                    CHANNELS 3 Zrotation Yrotation Xrotation
                    JOINT LeftHandRing2
                    {
                      OFFSET 6.033195 0.0 4e-06
                      CHANNELS 3 Zrotation Yrotation Xrotation
                      JOINT LeftHandRing3
                      {
                        OFFSET 4.350578 3e-06 0.0
                        CHANNELS 3 Zrotation Yrotation Xrotation
                        JOINT LeftHandRing4
                        {
                          OFFSET 2.651321 1e-06 -7e-06
                          CHANNELS 3 Zrotation Yrotation Xrotation
                          JOINT LeftHandRingEnd
                          {
                            OFFSET 1.937668 1e-06 -4e-06
                            CHANNELS 3 Zrotation Yrotation Xrotation
                          }
                        }
                      }
                    }
                  }
                  JOINT LeftHandPinky1
                  {
                    OFFSET 2.865311 -1.525436 0.575687
                    CHANNELS 3 Zrotation Yrotation Xrotation
                    JOINT LeftHandPinky2
                    {
                      OFFSET 5.549362 1e-06 -8e-06
                      CHANNELS 3 Zrotation Yrotation Xrotation
                      JOINT LeftHandPinky3
                      {
                        OFFSET 3.070969 0.0 -4e-06
                        CHANNELS 3 Zrotation Yrotation Xrotation
                        JOINT LeftHandPinky4
                        {
                          OFFSET 1.549675 1e-06 0.0
                          CHANNELS 3 Zrotation Yrotation Xrotation
                          JOINT LeftHandPinkyEnd
                          {
                            OFFSET 1.952118 0.0 0.0
                            CHANNELS 3 Zrotation Yrotation Xrotation
                          }
                        }
                      }
                    }
                  }
                }
              }
            }
          }
          JOINT RightShoulder
          {
            OFFSET 23.161718 5.296122 -1.380114
            CHANNELS 3 Zrotation Yrotation Xrotation
            JOINT RightArm
            {
              OFFSET -16.027195 -2e-06 1.1e-05
              CHANNELS 3 Zrotation Yrotation Xrotation
              JOINT RightForeArm
              {
                OFFSET -28.736641 4e-06 2e-06
                CHANNELS 3 Zrotation Yrotation Xrotation
                JOINT RightHand
                {
                  OFFSET -27.133617 6e-06 0.0
                  CHANNELS 3 Zrotation Yrotation Xrotation
                  JOINT RightHandThumb1
                  {
                    OFFSET -2.274328 -3.351035 -0.83067
                    CHANNELS 3 Zrotation Yrotation Xrotation
                    JOINT RightHandThumb2
                    {
                      OFFSET -4.703592 -3e-06 2e-06
                      CHANNELS 3 Zrotation Yrotation Xrotation
                      JOINT RightHandThumb3
                      {
                        OFFSET -2.794937 -4e-06 -3e-06
                        CHANNELS 3 Zrotation Yrotation Xrotation
                        JOINT RightHandThumbEnd
                        {
                          OFFSET -3.183853 4e-06 1e-06
                          CHANNELS 3 Zrotation Yrotation Xrotation
                        }
                      }
                    }
                  }
                  JOINT RightHandIndex1
                  {
                    OFFSET -3.253498 -2.33755 -0.127667
                    CHANNELS 3 Zrotation Yrotation Xrotation
                    JOINT RightHandIndex2
                    {
                      OFFSET -6.344433 0.0 0.0
                      CHANNELS 3 Zrotation Yrotation Xrotation
                      JOINT RightHandIndex3
                      {
                        OFFSET -3.654869 0.0 -8e-06
                        CHANNELS 3 Zrotation Yrotation Xrotation
                        JOINT RightHandIndex4
                        {
                          OFFSET -2.327587 -1e-06 0.0
                          CHANNELS 3 Zrotation Yrotation Xrotation
                          JOINT RightHandIndexEnd
                          {
                            OFFSET -2.770004 3e-06 8e-06
                            CHANNELS 3 Zrotation Yrotation Xrotation
                          }
                        }
                      }
                    }
                  }
                  JOINT RightHandMiddle1
                  {
                    OFFSET -3.168224 -0.944764 0.411762
                    CHANNELS 3 Zrotation Yrotation Xrotation
                    JOINT RightHandMiddle2
                    {
                      OFFSET -6.266689 -1e-06 -4e-06
                      CHANNELS 3 Zrotation Yrotation Xrotation
                      JOINT RightHandMiddle3
                      {
                        OFFSET -4.348904 0.0 0.0
                        CHANNELS 3 Zrotation Yrotation Xrotation
                        JOINT RightHandMiddle4
                        {
                          OFFSET -3.000237 2e-06 -4e-06
                          CHANNELS 3 Zrotation Yrotation Xrotation
                          JOINT RightHandMiddleEnd
                          {
                            OFFSET -2.32148 -4e-06 -4e-06
                            CHANNELS 3 Zrotation Yrotation Xrotation
                          }
                        }
                      }
                    }
                  }
                  JOINT RightHandRing1
                  {
                    OFFSET -2.885654 0.293261 -0.119232
                    CHANNELS 3 Zrotation Yrotation Xrotation
                    JOINT RightHandRing2
                    {
                      OFFSET -6.032833 -1e-06 -4e-06
                      CHANNELS 3 Zrotation Yrotation Xrotation
                      JOINT RightHandRing3
                      {
                        OFFSET -4.33881 0.0 -4e-06
                        CHANNELS 3 Zrotation Yrotation Xrotation
                        JOINT RightHandRing4
                        {
                          OFFSET -2.654903 -4e-06 -4e-06
                          CHANNELS 3 Zrotation Yrotation Xrotation
                          JOINT RightHandRingEnd
                          {
                            OFFSET -1.935123 0.0 4e-06
                            CHANNELS 3 Zrotation Yrotation Xrotation
                          }
                        }
                      }
                    }
                  }
                  JOINT RightHandPinky1
                  {
                    OFFSET -2.866241 1.503903 -0.60527
                    CHANNELS 3 Zrotation Yrotation Xrotation
                    JOINT RightHandPinky2
                    {
                      OFFSET -5.553177 -1e-06 0.0
                      CHANNELS 3 Zrotation Yrotation Xrotation
                      JOINT RightHandPinky3
                      {
                        OFFSET -3.062664 -1e-06 -4e-06
                        CHANNELS 3 Zrotation Yrotation Xrotation
                        JOINT RightHandPinky4
                        {
                          OFFSET -1.546532 2e-06 4e-06
                          CHANNELS 3 Zrotation Yrotation Xrotation
                          JOINT RightHandPinkyEnd
                          {
                            OFFSET -1.952339 0.0 -4e-06
                            CHANNELS 3 Zrotation Yrotation Xrotation
                          }
                        }
                      }
                    }
                  }
                }
              }
            }
          }
        }
      }
    }
    JOINT LeftLeg
    {
      OFFSET -8.443107 2.567604 10.043214
      CHANNELS 3 Zrotation Yrotation Xrotation
      JOINT LeftShin
      {
        OFFSET 43.229202 1e-06 -1e-06
        CHANNELS 3 Zrotation Yrotation Xrotation
        JOINT LeftFoot
        {
          OFFSET 42.298607 1e-06 1e-06
          CHANNELS 3 Zrotation Yrotation Xrotation
          JOINT LeftToeBase
          {
            OFFSET 14.165863 1e-06 0.0
            CHANNELS 3 Zrotation Yrotation Xrotation
            JOINT LeftToeEnd
            {
              OFFSET 6.714096 -0.234461 0.0
              CHANNELS 3 Zrotation Yrotation Xrotation
            }
          }
        }
      }
    }
    JOINT RightLeg
    {
      OFFSET -8.303924 2.592729 -10.047277
      CHANNELS 3 Zrotation Yrotation Xrotation
      JOINT RightShin
      {
        OFFSET -43.369686 0.0 0.0
        CHANNELS 3 Zrotation Yrotation Xrotation
        JOINT RightFoot
        {
          OFFSET -42.260784 4e-06 3e-06
          CHANNELS 3 Zrotation Yrotation Xrotation
          JOINT RightToeBase
          {
            OFFSET -14.222237 -2e-06 -2e-06
            CHANNELS 3 Zrotation Yrotation Xrotation
            JOINT RightToeEnd
            {
              OFFSET -6.660072 0.232574 -1e-06
              CHANNELS 3 Zrotation Yrotation Xrotation
            }
          }
        }
      }
    }
  }
}
MOTION
Frames: 4
Frame Time: 0.03333333333333333
0.0 0.0 0.0 0.0 -0.0 0.0 -0.328938 97.818932 -4.817784 90.620171 1.834335 90.097 1.355465 -1.718683 -0.519947 -9.998157 -0.914967 -0.924216 18.466282 1.012087 -2.186793 21.340868 2.452562 2.867513 -2.52436 -1.007457 -1.299921 -39.380592 -0.513911 -1.16621 6e-06 0.0 -0.0 0.088949 -0.012596 -0.188503 0.080945 -0.022295 -0.200462 0.072116 -0.002331 -0.17421 -106.743309 -73.388344 121.478783 45.294807 -62.213428 -2.057763 21.903723 -0.285666 -0.046951 -3.001864 0.169534 12.38633 17.636553 -26.322588 52.411022 -19.466566 -14.395529 29.410282 9e-06 -8.774786 -3e-06 17.077629 -18.94305 5.763637 -0.609778 -1.795649 -3.889317 -4.807086 -11.046777 -2.937845 -1.4e-05 -20.975935 -1.3e-05 -5.019948 -25.033487 -4.031898 6e-06 2e-06 -2e-06 -10.634509 -5.686968 -3.565574 10.57321 -17.922873 -3.113891 -9e-06 -13.821157 -8e-06 -0.501773 -31.181406 -4.027036 -11.724815 -60.306198 7.569458 -13.982679 -7.150196 -2.875031 13.772668 -8.401448 -3.218229 0.347708 -34.211422 0.771637 -0.963032 -17.733326 2.621001 -2e-06 -3e-06 0.0 -17.346392 -20.095186 -4.201765 21.757484 -1.638339 3.866421 -6e-06 -6.338801 -6e-06 -1.69759 -22.591707 -6.194021 1e-06 -3e-06 -4e-06 44.586147 -70.076393 154.634583 49.745232 -53.79826 -17.379282 21.98278 -1.142097 -0.370308 -0.541571 8.170234 1.751803 22.182096 -20.375799 49.93322 -16.701771 -16.74353 28.476469 1e-05 -12.690609 -3e-06 16.601734 -17.787136 2.359797 -0.105921 -1.513852 -4.275872 -5.039048 -5.612864 -2.953549 -5e-06 -11.020504 -7e-06 -6.111309 -15.895339 -3.840492 0.0 1e-06 -1e-06 -10.283379 -5.680288 -4.341825 11.028286 -11.302364 -2.37263 -1.384285 -14.238559 -6.320122 -0.625428 -26.924179 -3.827637 -3.94712 -49.298252 -3.757808 -13.708532 -7.363473 -3.720925 18.141134 -14.052687 -3.242669 -5e-06 -18.787237 -1.3e-05 -0.429713 -8.456039 2.555501 0.0 -0.0 2e-06 -15.923563 -20.094458 -5.473565 30.419224 -7.190783 1.735942 -2e-06 -8.162909 -4e-06 -1.861906 -22.861465 -6.167973 0.0 -4e-06 -3e-06 -165.758041 5.454443 0.902235 6.195346 0.015561 -0.245401 -88.259392 0.408033 4.284256 -6.558183 1.429727 2.045991 -0.999999 -0.0 0.0 -32.730778 -3.27394 3.747211 69.01606 -0.049955 -0.1559 -70.167961 -8.501884 -4.841511 -8.727766 0.781183 1.750294 -0.999999 0.0 -0.0 
0.0 0.0 0.0 0.0 -0.0 0.0 0.064803 97.554329 -3.200754 89.713966 1.644266 90.322258 1.558231 -1.312756 -0.579363 -9.90491 -0.827383 -1.266199 18.567316 1.476039 -2.661819 21.089813 2.918349 2.777346 -2.549488 -1.07748 -1.394229 -39.392654 -0.648163 -1.099594 6e-06 -0.0 -0.0 0.042325 -0.010824 -0.175233 0.06073 -0.024118 -0.179896 0.059828 0.00301 -0.171133 -104.874474 -74.056381 119.560387 46.806232 -61.528954 -4.348935 22.51782 -0.323378 -0.081484 -3.258665 -0.088505 12.775242 17.636549 -26.322771 52.411427 -19.466675 -14.395613 29.410528 -1.1e-05 -8.774826 4e-06 16.901787 -18.682922 5.816406 -0.609776 -1.795649 -3.889332 -4.807074 -11.046783 -2.937874 3.2e-05 -20.975992 -1.4e-05 -5.019914 -25.033571 -4.031922 9e-06 1e-06 -2e-06 -10.634513 -5.686955 -3.565608 10.573277 -17.922916 -3.113917 1.7e-05 -13.821195 4e-06 -0.501719 -31.181536 -4.027028 -11.525231 -60.385136 7.56941 -13.982685 -7.150177 -2.875064 13.772719 -8.401485 -3.218256 0.347767 -34.211525 0.771665 -0.96303 -17.733402 2.621056 1e-06 -3e-06 0.0 -17.346361 -20.095161 -4.201831 21.757526 -1.638388 3.866422 8e-06 -6.338818 5e-06 -1.69754 -22.591764 -6.194039 1e-06 -5e-06 -2e-06 44.52742 -69.437729 154.841965 49.098972 -53.14497 -16.633314 22.773067 -1.086697 -0.371552 0.283532 8.201231 2.265307 22.182074 -20.375975 49.933514 -16.701834 -16.743515 28.476646 -1.3e-05 -12.69059 9e-06 16.643755 -17.820604 2.349568 -0.105922 -1.513857 -4.275893 -5.039037 -5.612878 -2.953572 9e-06 -11.020554 -1.1e-05 -6.111274 -15.895411 -3.840515 0.0 -1e-06 -1e-06 -10.283355 -5.680287 -4.341858 11.028284 -11.302418 -2.372644 -1.384246 -14.238618 -6.320163 -0.625384 -26.924335 -3.827663 -4.036261 -49.587379 -3.650553 -13.708508 -7.363479 -3.720963 18.141134 -14.052759 -3.242691 1.8e-05 -18.787323 -9e-06 -0.429713 -8.456093 2.555518 2e-06 1e-06 -2e-06 -15.923498 -20.094486 -5.473622 30.41917 -7.190829 1.735909 5e-06 -8.162943 2e-06 -1.861868 -22.861567 -6.167975 3e-06 -4e-06 -1e-06 -164.705963 4.725672 0.113864 5.982503 0.028053 -0.16887 -88.902252 1.296529 4.52082 -6.42455 1.448303 2.072643 -1.000001 0.0 0.0 -35.70121 -1.536674 1.485122 64.536957 -0.102699 -0.143454 -71.074448 -6.947732 -4.558098 -8.569538 0.782984 1.715322 -1.000006 0.0 -0.0 
0.0 0.0 0.0 0.0 -0.0 0.0 0.517713 97.182121 -1.460458 89.00692 1.226977 90.688423 1.633078 -1.119755 -0.618172 -9.880383 -0.833069 -1.695148 18.737633 1.997805 -3.046301 20.709425 3.533594 2.726068 -2.608018 -1.085686 -1.590057 -39.260918 -0.980041 -1.000829 6e-06 0.0 -0.0 0.024949 -0.012819 -0.193484 0.050548 -0.044973 -0.188 0.060246 0.019528 -0.201875 -102.423897 -75.000237 116.801971 47.97345 -61.061291 -6.019867 23.37262 -0.287544 -0.128549 -3.568646 -0.505732 12.90718 17.636776 -26.322786 52.411171 -19.466759 -14.39566 29.410412 8e-06 -8.774894 -1.2e-05 16.780188 -18.529272 5.846657 -0.609779 -1.795666 -3.889332 -4.807131 -11.046883 -2.937848 -8e-06 -20.976185 7e-06 -5.020042 -25.033827 -4.031912 6e-06 1e-06 -0.0 -10.634599 -5.687006 -3.565583 10.573337 -17.923059 -3.113906 -1e-06 -13.821316 0.0 -0.501792 -31.181852 -4.027051 -11.464065 -60.411041 7.563622 -13.9828 -7.150243 -2.875029 13.772816 -8.401536 -3.218245 0.347726 -34.211849 0.771655 -0.963029 -17.733551 2.621033 1e-06 1e-06 -1e-06 -17.346552 -20.095339 -4.201749 21.757708 -1.638374 3.866456 -0.0 -6.338872 -4e-06 -1.697616 -22.591986 -6.194065 -1e-06 -2e-06 -2e-06 44.207806 -68.62529 155.28392 48.062763 -52.423077 -15.734506 23.350048 -0.942034 -0.384992 0.607173 8.15435 2.950801 22.182234 -20.375883 49.933342 -16.701908 -16.743607 28.47658 -6e-06 -12.690683 -9e-06 16.592787 -17.778921 2.407812 -0.105917 -1.513865 -4.275888 -5.03907 -5.612897 -2.953559 9e-06 -11.020582 -7e-06 -6.111335 -15.89544 -3.840497 -0.0 -2e-06 1e-06 -10.283425 -5.680313 -4.341837 11.028358 -11.30245 -2.372648 -1.384276 -14.238651 -6.320145 -0.625409 -26.92437 -3.827639 -4.089015 -49.774113 -3.583297 -13.708595 -7.363508 -3.720932 18.14126 -14.052801 -3.242696 2.2e-05 -18.787369 -1.8e-05 -0.429697 -8.456102 2.555513 1e-06 1e-06 -0.0 -15.92363 -20.094568 -5.473579 30.419399 -7.190867 1.735942 1.1e-05 -8.162964 -9e-06 -1.861889 -22.861618 -6.168005 0.0 -5e-06 -2e-06 -163.796875 4.147166 -0.492929 5.85347 0.041342 -0.134099 -89.613602 2.206105 4.999213 -6.316556 1.42131 2.092594 -0.999995 0.0 -0.0 -37.834698 -0.180154 -1.212843 56.74958 -0.103464 -0.064591 -71.304543 -4.401262 -4.985274 -8.610339 0.8002 1.691344 -1.000004 -0.0 0.0 
0.0 0.0 0.0 0.0 -0.0 0.0 0.938428 96.649055 0.579616 88.746857 0.713695 91.17028 1.66236 -1.2682 -0.623064 -9.933455 -0.935883 -2.097183 18.929028 2.399543 -3.430769 20.2927 4.442317 2.740686 -2.632354 -1.149042 -1.858314 -39.179504 -1.382675 -0.943778 6e-06 0.0 -0.0 0.031241 -0.019043 -0.206991 0.038578 -0.063506 -0.198222 0.058654 0.024906 -0.219443 -98.948647 -76.068512 113.040199 49.447441 -60.482357 -7.313402 24.136145 -0.202956 -0.167993 -3.754796 -1.031719 13.184457 17.636745 -26.322836 52.411324 -19.466904 -14.395693 29.410576 -5.1e-05 -8.774882 -2e-06 16.723824 -18.45376 5.843117 -0.609768 -1.795661 -3.889342 -4.807055 -11.046844 -2.937881 0.000136 -20.976179 -3e-05 -5.01985 -25.033773 -4.031892 6e-06 1e-06 -1e-06 -10.634553 -5.68695 -3.565601 10.573426 -17.923092 -3.113958 8.4e-05 -13.82131 -1e-06 -0.501588 -31.181831 -4.027008 -11.557302 -60.434566 7.609959 -13.98274 -7.15017 -2.875062 13.772841 -8.4016 -3.218276 0.347955 -34.211842 0.771616 -0.962951 -17.733564 2.621098 2e-06 5e-06 -1e-06 -17.346395 -20.095215 -4.201834 21.757656 -1.638489 3.866421 3.9e-05 -6.338866 -4e-06 -1.697439 -22.591957 -6.194069 1e-06 -3e-06 -0.0 43.952618 -67.664871 155.681625 46.971127 -51.911461 -15.25474 23.491133 -0.680599 -0.373277 0.588014 8.177922 3.413292 22.182089 -20.375978 49.933369 -16.70191 -16.743448 28.47662 -4.6e-05 -12.690556 9e-06 16.540548 -17.733141 2.47784 -0.105918 -1.513866 -4.275886 -5.039008 -5.612888 -2.953572 3.9e-05 -11.020605 -8e-06 -6.111206 -15.895466 -3.840484 -0.0 1e-06 -1e-06 -10.28333 -5.680285 -4.341856 11.028287 -11.302496 -2.372646 -1.384203 -14.238683 -6.320152 -0.625346 -26.92449 -3.827616 -4.10078 -49.984154 -3.52355 -13.708467 -7.363471 -3.720963 18.14113 -14.052865 -3.242697 6.7e-05 -18.787415 -1e-05 -0.429692 -8.456136 2.555525 -1e-06 -1e-06 -0.0 -15.923425 -20.094519 -5.473622 30.419088 -7.19092 1.735883 2.8e-05 -8.162981 -6e-06 -1.861787 -22.861694 -6.167972 1e-06 -5e-06 -0.0 -162.893707 4.005536 -0.869994 5.875488 0.03685 -0.137397 -90.412354 2.909228 5.531923 -6.330264 1.40677 2.104935 -0.999998 0.0 -0.0 -38.534477 0.863547 -3.29875 45.701832 -0.022758 -0.018201 -70.946373 -1.642198 -6.230092 -8.786839 0.847993 1.694546 -1.0 -0.0 0.0 
